<svg width="1446" height="500" viewBox="0 0 1446 500" fill="none" xmlns="http://www.w3.org/2000/svg">
<g clip-path="url(#clip0)">
<path d="M106.936 192.196C126.927 164.981 158.719 147.64 194.364 147.64L202.553 147.881H202.312C269.027 147.881 321.05 194.605 321.05 272.158V491.811H214.355V309.73C214.355 270.231 193.882 248.314 161.368 248.314C131.744 248.314 106.936 268.786 106.936 311.898V491.811H0V0H106.936V192.196ZM729.287 492.052H626.686V455.684C605.491 483.382 572.495 500.963 535.405 500.963H530.106H530.347C440.992 500.963 374.759 423.17 374.759 324.181C374.759 225.193 440.992 148.121 530.828 148.121H535.405C572.495 148.121 605.732 165.703 626.686 193.16L626.927 193.401V157.274H729.528V492.052H729.287ZM483.141 324.422C483.141 364.162 515.173 396.195 554.913 396.195C594.653 396.195 626.686 364.162 626.686 324.422C626.686 284.682 594.653 252.649 554.913 252.649C515.173 252.649 483.141 284.682 483.141 324.422ZM1157.03 324.181C1157.03 422.929 1090.56 500.963 1001.2 500.963L995.906 501.204C959.056 501.204 926.301 483.863 905.588 456.647L905.347 456.407V492.293H802.746V0H909.441V189.306C930.395 164.017 961.946 148.121 996.869 148.121H1001.93H1001.69C1090.56 148.121 1157.03 225.434 1157.03 324.181ZM904.383 324.181C904.383 363.921 936.416 395.954 976.156 395.954C1015.9 395.954 1047.93 363.921 1047.93 324.181C1047.93 284.441 1015.9 252.408 976.156 252.408C936.416 252.408 904.383 284.441 904.383 324.181ZM1444.12 153.179L1434.97 259.634C1419.08 254.335 1400.77 250.963 1381.5 250.723H1381.26C1378.85 250.482 1376.2 250.241 1373.55 250.241C1343.69 250.241 1319.36 274.566 1319.36 304.432C1319.36 306.84 1319.6 309.008 1319.85 311.416V311.175V492.293H1212.91V157.514H1315.51V196.05C1333.09 167.148 1364.4 148.121 1400.29 148.121L1407.27 148.362H1407.03H1407.27C1420.52 148.362 1433.04 150.289 1445.09 153.661L1444.12 153.179Z" fill="black"/>
</g>
<defs>
<clipPath id="clip0">
<rect width="1445.09" height="500" fill="white"/>
</clipPath>
</defs>
</svg>
