<svg width="861" height="500" viewBox="0 0 861 500" fill="none" xmlns="http://www.w3.org/2000/svg">
<g clip-path="url(#clip0)">
<path d="M487.533 252.623C487.533 386.852 379.459 495.672 246.139 495.672C112.82 495.672 4.75391 386.885 4.75391 252.623C4.75391 118.361 112.828 9.58197 246.139 9.58197C379.451 9.58197 487.533 118.393 487.533 252.623Z" fill="black"/>
<path d="M752.345 252.623C752.345 378.984 698.304 481.41 631.648 481.41C564.992 481.41 510.951 378.951 510.951 252.623C510.951 126.295 564.992 23.8361 631.648 23.8361C698.304 23.8361 752.345 126.295 752.345 252.623Z" fill="black"/>
<path d="M860.656 252.623C860.656 365.836 841.647 457.607 818.205 457.607C794.762 457.607 775.754 365.803 775.754 252.623C775.754 139.443 794.762 47.6393 818.213 47.6393C841.664 47.6393 860.656 139.418 860.656 252.623Z" fill="black"/>
</g>
<defs>
<clipPath id="clip0">
<rect width="860.656" height="500" fill="white"/>
</clipPath>
</defs>
</svg>
