<svg width="500" height="500" viewBox="0 0 500 500" fill="none" xmlns="http://www.w3.org/2000/svg">
<path d="M400.181 230.615C436.987 230.615 464.695 214.19 485.126 185.596L457.82 163.28C451.076 172.801 442.358 180.515 432.356 185.813C422.354 191.111 411.34 193.847 400.181 193.808C360.237 193.808 331.293 158.95 331.293 116.178C331.293 73.405 359.765 36.5838 401.32 36.5838C419.793 36.5838 432.848 41.2551 444.237 48.8129V86.4227H478.598V31.585L472.015 26.0355C453.126 10.1166 424.279 1.66626 400.168 1.66626C341.223 1.66626 293.279 53.0233 293.279 116.163C293.279 179.243 341.195 230.615 400.168 230.615H400.181ZM471.473 456.454L470.251 403.743V275.113H398.584V311.935H434.056V399.206C434.056 436.801 407.251 463.416 380.209 463.416C353.168 463.416 339.056 443.332 339.056 405.752V275.098H272.112V311.92H302.862V412.134C302.862 463.134 329.556 498.274 377.168 498.274C404.529 498.274 425.362 482.013 437.793 456.945H438.348L443.251 491.996H498.32V456.498H471.515V456.424L471.473 456.454ZM285.362 7.06686H225.64L173.695 168.635H172.89L121.223 7.06686H57.5842V43.9031H93.3759L154.973 228.056H187.695V228.011L251.931 43.918H285.334V7.08184L285.362 7.06686ZM1.69531 492.472H37.0842V454.579H1.7092V492.472H1.69531ZM138.362 317.811H137.973L135.751 275.113H72.5842V308.677H106.195V456.469H72.5842V491.981H228.695V457.168H141.779V367.978C145.709 335.694 168.306 308.126 199.14 308.126H199.695L199.07 341.124H233.431V274.503H206.265C175.154 274.414 152.07 292.445 138.348 317.826L138.362 317.811Z" fill="black"/>
</svg>
