<?xml version="1.0" encoding="UTF-8"?>
<svg version="1.1" xmlns="http://www.w3.org/2000/svg" xmlns:xlink="http://www.w3.org/1999/xlink">
<defs>
<clipPath id="clip0"><path fill="#fff" d="M0 0h1445.09v500H0z"/></clipPath>
<clipPath id="clip0"><path fill="#fff" d="M0 0h860.656v500H0z"/></clipPath>
</defs>
<symbol id="i-habr" viewBox="0 0 1446 500" fill="none" xmlns="http://www.w3.org/2000/svg"><g clip-path="url(#clip0)"><path d="M106.936 192.196c19.991-27.215 51.783-44.556 87.428-44.556l8.189.241h-.241c66.715 0 118.738 46.724 118.738 124.277v219.653H214.355V309.73c0-39.499-20.473-61.416-52.987-61.416-29.624 0-54.432 20.472-54.432 63.584v179.913H0V0h106.936v192.196zm622.351 299.856H626.686v-36.368c-21.195 27.698-54.191 45.279-91.281 45.279h-5.299.241c-89.355 0-155.588-77.793-155.588-176.782 0-98.988 66.233-176.06 156.069-176.06h4.577c37.09 0 70.327 17.582 91.281 45.039l.241.241v-36.127h102.601v334.778h-.241zm-246.146-167.63c0 39.74 32.032 71.773 71.772 71.773 39.74 0 71.773-32.033 71.773-71.773 0-39.74-32.033-71.773-71.773-71.773-39.74 0-71.772 32.033-71.772 71.773zm673.889-.241c0 98.748-66.47 176.782-155.83 176.782l-5.294.241c-36.85 0-69.605-17.341-90.318-44.557l-.241-.24v35.886H802.746V0h106.695v189.306c20.954-25.289 52.505-41.185 87.428-41.185h5.061-.24c88.87 0 155.34 77.313 155.34 176.06zm-252.647 0c0 39.74 32.033 71.773 71.773 71.773 39.744 0 71.774-32.033 71.774-71.773 0-39.74-32.03-71.773-71.774-71.773-39.74 0-71.773 32.033-71.773 71.773zm539.737-171.002l-9.15 106.455c-15.89-5.299-34.2-8.671-53.47-8.911h-.24c-2.41-.241-5.06-.482-7.71-.482-29.86 0-54.19 24.325-54.19 54.191 0 2.408.24 4.576.49 6.984v-.241 181.118h-106.94V157.514h102.6v38.536c17.58-28.902 48.89-47.929 84.78-47.929l6.98.241h-.24.24c13.25 0 25.77 1.927 37.82 5.299l-.97-.482z" fill="#000"/></g></symbol>
<symbol id="i-logo-transparent" viewBox="0 0 500 500" fill="none" xmlns="http://www.w3.org/2000/svg"><path stroke="#000" stroke-width="60" d="M155 155h190v190H155z"/></symbol>
<symbol id="i-medium" viewBox="0 0 861 500" fill="none" xmlns="http://www.w3.org/2000/svg"><g clip-path="url(#clip0)" fill="#000"><path d="M487.533 252.623c0 134.229-108.074 243.049-241.394 243.049-133.319 0-241.385-108.787-241.385-243.049S112.828 9.582 246.139 9.582c133.312 0 241.394 108.811 241.394 243.041zM752.345 252.623c0 126.361-54.041 228.787-120.697 228.787S510.951 378.951 510.951 252.623 564.992 23.836 631.648 23.836s120.697 102.459 120.697 228.787zM860.656 252.623c0 113.213-19.009 204.984-42.451 204.984-23.443 0-42.451-91.804-42.451-204.984s19.008-204.984 42.459-204.984c23.451 0 42.443 91.779 42.443 204.984z"/></g></symbol>
<symbol id="i-vcru" viewBox="0 0 500 500" fill="none" xmlns="http://www.w3.org/2000/svg"><path d="M400.181 230.615c36.806 0 64.514-16.425 84.945-45.019L457.82 163.28c-6.744 9.521-15.462 17.235-25.464 22.533-10.002 5.298-21.016 8.034-32.175 7.995-39.944 0-68.888-34.858-68.888-77.63 0-42.773 28.472-79.594 70.027-79.594 18.473 0 31.528 4.671 42.917 12.229v37.61h34.361V31.585l-6.583-5.55c-18.889-15.918-47.736-24.369-71.847-24.369-58.945 0-106.889 51.357-106.889 114.497 0 63.08 47.916 114.452 106.889 114.452h.013zm71.292 225.839l-1.222-52.711v-128.63h-71.667v36.822h35.472v87.271c0 37.595-26.805 64.21-53.847 64.21-27.041 0-41.153-20.084-41.153-57.664V275.098h-66.944v36.822h30.75v100.214c0 51 26.694 86.14 74.306 86.14 27.361 0 48.194-16.261 60.625-41.329h.555l4.903 35.051h55.069v-35.498h-26.805v-.074l-.042.03zM285.362 7.067H225.64l-51.945 161.568h-.805L121.223 7.067H57.584v36.836h35.792l61.597 184.153h32.722v-.045l64.236-184.093h33.403V7.082l.028-.015zM1.695 492.472h35.39v-37.893H1.708v37.893h-.014zm136.667-174.661h-.389l-2.222-42.698H72.584v33.564h33.611v147.792h-33.61v35.512h156.11v-34.813h-86.916v-89.19c3.93-32.284 26.527-59.852 57.361-59.852h.555l-.625 32.998h34.361v-66.621h-27.166c-31.111-.089-54.195 17.942-67.917 43.323l.014-.015z" fill="#000"/></symbol>
</svg>